0
SECTION
2
HEADER
9
$INSUNITS
70
4
9
$ACADVER
1
AC1014
9
$HANDSEED
5
FFFF
0
ENDSEC
0
SECTION
2
TABLES
0
TABLE
2
VPORT
5
8
100
AcDbSymbolTable
0
ENDTAB
0
TABLE
2
LTYPE
5
5
100
AcDbSymbolTable
0
LTYPE
5
14
100
AcDbSymbolTableRecord
100
AcDbLinetypeTableRecord
2
BYBLOCK
70
0
0
LTYPE
5
15
100
AcDbSymbolTableRecord
100
AcDbLinetypeTableRecord
2
BYLAYER
70
0
0
ENDTAB
0
TABLE
2
LAYER
5
2
100
AcDbSymbolTable
70
2
0
LAYER
5
50
100
AcDbSymbolTableRecord
100
AcDbLayerTableRecord
2
0
70
0
6
CONTINUOUS
0
ENDTAB
0
TABLE
2
STYLE
5
3
100
AcDbSymbolTable
70
1
0
STYLE
5
11
100
AcDbSymbolTableRecord
100
AcDbTextStyleTableRecord
2
STANDARD
70
0
0
ENDTAB
0
TABLE
2
VIEW
5
6
100
AcDbSymbolTable
70
0
0
ENDTAB
0
TABLE
2
UCS
5
7
100
AcDbSymbolTable
70
0
0
ENDTAB
0
TABLE
2
APPID
5
9
100
AcDbSymbolTable
70
2
0
APPID
5
12
100
AcDbSymbolTableRecord
100
AcDbRegAppTableRecord
2
ACAD
70
0
0
ENDTAB
0
TABLE
2
DIMSTYLE
5
A
100
AcDbSymbolTable
70
1
0
ENDTAB
0
TABLE
2
BLOCK_RECORD
5
1
100
AcDbSymbolTable
70
1
0
BLOCK_RECORD
5
1F
100
AcDbSymbolTableRecord
100
AcDbBlockTableRecord
2
*MODEL_SPACE
0
BLOCK_RECORD
5
1B
100
AcDbSymbolTableRecord
100
AcDbBlockTableRecord
2
*PAPER_SPACE
0
ENDTAB
0
ENDSEC
0
SECTION
2
BLOCKS
0
BLOCK
5
20
100
AcDbEntity
100
AcDbBlockBegin
2
*MODEL_SPACE
0
ENDBLK
5
21
100
AcDbEntity
100
AcDbBlockEnd
0
BLOCK
5
1C
100
AcDbEntity
100
AcDbBlockBegin
2
*PAPER_SPACE
0
ENDBLK
5
1D
100
AcDbEntity
100
AcDbBlockEnd
0
ENDSEC
0
SECTION
2
ENTITIES
0
LWPOLYLINE
5
100
100
AcDbEntity
8
0
100
AcDbPolyline
90
6
70
1
43
0.0
10
1476.8936125141897
20
-1070.6600834025944
42
0.57735026918963395
10
1476.8936125141918
20
-1018.698559175528
10
774.99998329371476
20
-613.46008340257083
42
0.57735026918962618
10
729.99998329371374
20
-639.4408455161024
10
729.9999832936868
20
-1449.9177970619698
42
0.57735026918962395
10
774.99998329368611
20
-1475.8985591755045
0
LWPOLYLINE
5
101
100
AcDbEntity
8
0
100
AcDbPolyline
90
8
70
1
43
0.0
10
1042.8500595579374
20
-969.58039131713076
10
1034.5593409245496
20
-964.79374268236802
42
-0.99999999999999989
10
1032.980544749425
20
-958.90159514200434
10
1073.7671933724305
20
-888.2570473922417
42
-0.9999999925494194
10
1079.6593409245572
20
-886.67825126101661
10
1087.9500595579448
20
-891.46489989577947
42
-0.99999999999999989
10
1089.5288557330698
20
-897.35704743614303
10
1048.7422070983007
20
-968.00159514200584
42
-0.99999999999999989
0
LWPOLYLINE
5
102
100
AcDbEntity
8
0
100
AcDbPolyline
90
8
70
1
43
0.0
10
904.48417861909024
20
-1039.8926726542916
10
904.48417861908911
20
-1049.4659699238159
42
-0.99999999999999989
10
900.17082725385092
20
-1053.7793212890531
10
818.59752998432771
20
-1053.7793212890449
42
-0.99999999999999989
10
814.28417861908986
20
-1049.4659699238068
10
814.28417861909134
20
-1039.8926726542832
42
-0.99999999999999989
10
818.59752998432919
20
-1035.5793212890449
10
900.17082728598939
20
-1035.5793212569163
42
-0.9999999925494194
0
LWPOLYLINE
5
103
100
AcDbEntity
8
0
100
AcDbPolyline
90
8
70
1
43
0.0
10
1034.5593409245334
20
-1124.5648998957652
10
1042.8500595579223
20
-1119.7782512610038
42
-0.99999999999999989
10
1048.742207098285
20
-1121.3570474361295
10
1089.5288557769395
20
-1192.0015951537637
42
-0.9999999925494194
10
1087.9500595579138
20
-1197.8937426823641
10
1079.6593409127624
20
-1202.6803913610252
42
-0.9999999925494194
10
1073.7671933841623
20
-1201.1015951419995
10
1032.9805447494073
20
-1130.4570474361281
42
-0.99999999999999989
0
LWPOLYLINE
5
104
100
AcDbEntity
8
0
100
AcDbPolyline
90
8
70
1
43
0.0
10
1344.4624494557022
20
-1368.5012638098115
10
1336.1717308983507
20
-1363.7146151546754
42
-1.0000000129047841
10
1334.5929346471905
20
-1357.8224676346849
10
1355.3795832819583
20
-1321.8189360802037
42
-0.99999999999999989
10
1361.2717308223223
20
-1320.2401399050793
10
1369.5624494557114
20
-1325.0267885398423
42
-0.99999999999999989
10
1371.1412456308335
20
-1330.9189360802063
10
1350.3545969960655
20
-1366.9224676346871
42
-0.99999999999999989
0
LWPOLYLINE
5
105
100
AcDbEntity
8
0
100
AcDbPolyline
90
8
70
1
43
0.0
10
1336.171730822346
20
-1214.0210171739186
10
1344.4624494557352
20
-1209.2343685391575
42
-0.99999999999999989
10
1350.3545969960978
20
-1210.8131647142839
10
1371.1412456308503
20
-1246.8166962687746
42
-0.99999999999999989
10
1369.562449455723
20
-1252.7088438091378
10
1361.2717308223343
20
-1257.4954924438996
42
-0.99999999999999989
10
1355.3795832819717
20
-1255.9166962687723
10
1334.5929346472208
20
-1219.9131647142817
42
-0.99999999999999989
0
LWPOLYLINE
5
106
100
AcDbEntity
8
0
100
AcDbPolyline
90
8
70
1
43
0.0
10
1474.1009081086079
20
-1284.0811675397538
10
1474.1009081086065
20
-1293.6544648092781
42
-0.99999999999999989
10
1469.787556743368
20
-1297.9678161745153
10
1428.214259441713
20
-1297.9678162066421
42
-0.9999999925494194
10
1423.9009081086115
20
-1293.6544648092672
10
1423.9009081086126
20
-1284.0811675397424
42
-0.99999999999999989
10
1428.2142594738516
20
-1279.7678161745057
10
1469.7875567433707
20
-1279.7678161745148
42
-0.99999999999999989
0
LWPOLYLINE
5
107
100
AcDbEntity
8
0
100
AcDbPolyline
90
6
70
1
43
0.0
10
1183.9471530553255
20
-1262.8870540609337
42
0.57735026918964849
10
1183.9471530553201
20
-1314.8485782880011
10
1462.8939676656003
20
-1475.8985967928654
42
0.57735026918964127
10
1507.8939676656023
20
-1449.9178346793346
10
1507.8939676656132
20
-1127.8177976696784
42
0.57735026918958821
10
1462.8939676656164
20
-1101.8370355561422
0
LINE
5
108
100
AcDbEntity
8
0
100
AcDbLine
10
1527.8940635289657
20
-1471.199951171875
30
0
11
1557.4737717207393
21
-1471.199951171875
31
3.0594733044976356e-30
0
LINE
5
109
100
AcDbEntity
8
0
100
AcDbLine
10
1645.6801826430251
20
-1471.199951171875
30
0
11
1645.6801826430251
21
-1097.199951171875
31
0
0
LINE
5
110
100
AcDbEntity
8
0
100
AcDbLine
10
1645.6801826430251
20
-1097.199951171875
30
0
11
1616.1004744512111
21
-1097.199951171875
31
-4.7135017942928683e-28
0
LINE
5
111
100
AcDbEntity
8
0
100
AcDbLine
10
1611.7871230859732
20
-1092.8865998066372
30
0
11
1611.7871230859732
21
-1079.199951171875
31
4.9303806576313238e-31
0
LINE
5
112
100
AcDbEntity
8
0
100
AcDbLine
10
1611.7871230859732
20
-1079.199951171875
30
4.9303806576313238e-31
11
1561.787123085978
21
-1079.199951171875
31
-7.385365636823741e-29
0
LINE
5
113
100
AcDbEntity
8
0
100
AcDbLine
10
1561.787123085978
20
-1079.199951171875
30
-7.385365636823741e-29
11
1561.787123085978
21
-1092.8865998066374
31
-2.4651903288156619e-31
0
LINE
5
114
100
AcDbEntity
8
0
100
AcDbLine
10
1557.4737717207395
20
-1097.199951171875
30
0
11
1527.8940635289659
21
-1097.1999511718752
31
2.6567300967278932e-29
0
LINE
5
115
100
AcDbEntity
8
0
100
AcDbLine
10
1527.8940635289659
20
-1097.1999511718752
30
2.6567300967278932e-29
11
1527.8940635289657
21
-1471.199951171875
31
0
0
LINE
5
116
100
AcDbEntity
8
0
100
AcDbLine
10
1561.7871230859778
20
-1475.5133025371128
30
0
11
1561.7871230859778
21
-1489.199951171875
31
-4.9303806576313238e-31
0
LINE
5
117
100
AcDbEntity
8
0
100
AcDbLine
10
1561.7871230859778
20
-1489.199951171875
30
-4.9303806576313238e-31
11
1611.7871230859728
21
-1489.199951171875
31
7.385365636823741e-29
0
LINE
5
118
100
AcDbEntity
8
0
100
AcDbLine
10
1611.7871230859728
20
-1489.199951171875
30
7.385365636823741e-29
11
1611.7871230859728
21
-1475.5133025371131
31
4.9303806576313238e-31
0
LWPOLYLINE
5
119
100
AcDbEntity
8
0
100
AcDbPolyline
90
16
70
1
43
0.0
10
1557.4738565246
20
-667.19995117187523
10
1527.8941483328208
20
-667.19995117187534
10
1527.8941483328208
20
-1041.1999511718752
10
1557.4738565246007
20
-1041.1999511718755
42
-0.99999999999999989
10
1561.7872078898392
20
-1045.5133025371131
10
1561.7872078898392
20
-1059.1999511718755
10
1611.7872078898345
20
-1059.1999511718755
10
1611.7872078898349
20
-1045.5133025371138
42
-0.99999999999999989
10
1616.1005592550716
20
-1041.1999511718752
10
1645.6802674468429
20
-1041.1999511718752
10
1645.6802674468429
20
-667.19995117187523
10
1616.1005592550712
20
-667.1999511718758
42
-0.99999999999999989
10
1611.7872078898338
20
-662.88659980663715
10
1611.7872078898338
20
-649.19995117187545
10
1561.7872078898386
20
-649.19995117187545
10
1561.7872078898383
20
-662.88659980663829
42
-0.99999999999999989
0
LINE
5
120
100
AcDbEntity
8
0
100
AcDbLine
10
1390.1081441507486
20
-937.04595947265614
30
0
11
1419.6878523425103
21
-937.04595947265614
31
4.6578509410507815e-28
0
LINE
5
121
100
AcDbEntity
8
0
100
AcDbLine
10
1507.8942632648079
20
-937.04595947265602
30
0
11
1507.8942632648079
21
-563.04595947265614
31
-7.8886090522101181e-30
0
LINE
5
122
100
AcDbEntity
8
0
100
AcDbLine
10
1507.8942632648079
20
-563.04595947265614
30
-7.8886090522101181e-30
11
1478.3145550729814
21
-563.04595947265614
31
-4.7226777429788621e-28
0
LINE
5
123
100
AcDbEntity
8
0
100
AcDbLine
10
1474.0012037077436
20
-558.73260810741829
30
0
11
1474.0012037077436
21
-545.04595947265602
31
0
0
LINE
5
124
100
AcDbEntity
8
0
100
AcDbLine
10
1474.0012037077436
20
-545.04595947265602
30
0
11
1424.0012037077483
21
-545.04595947265602
31
-7.1297551408795858e-29
0
LINE
5
125
100
AcDbEntity
8
0
100
AcDbLine
10
1424.0012037077483
20
-545.04595947265602
30
-7.1297551408795858e-29
11
1424.0012037077483
21
-558.73260810741817
31
9.8607613152626476e-31
0
LINE
5
126
100
AcDbEntity
8
0
100
AcDbLine
10
1419.6878523425103
20
-563.04595947265614
30
0
11
1390.1081441507486
21
-563.04595947265614
31
-3.5797067230129973e-28
0
LINE
5
127
100
AcDbEntity
8
0
100
AcDbLine
10
1390.1081441507486
20
-563.04595947265614
30
-3.5797067230129973e-28
11
1390.1081441507486
21
-937.04595947265602
31
-7.8886090522101181e-30
0
LINE
5
128
100
AcDbEntity
8
0
100
AcDbLine
10
1424.0012037077481
20
-941.35931083789399
30
0
11
1424.0012037077481
21
-955.04595947265614
31
-4.9303806576313238e-31
0
LINE
5
129
100
AcDbEntity
8
0
100
AcDbLine
10
1424.0012037077481
20
-955.04595947265614
30
-4.9303806576313238e-31
11
1474.0012037077431
21
-955.04595947265614
31
7.1297551408795858e-29
0
LINE
5
130
100
AcDbEntity
8
0
100
AcDbLine
10
1474.0012037077431
20
-955.04595947265614
30
7.1297551408795858e-29
11
1474.0012037077436
21
-941.35931083789399
31
-1.0846837446788912e-29
0
LWPOLYLINE
5
131
100
AcDbEntity
8
0
100
AcDbPolyline
90
8
70
1
43
0.0
10
1217.2115626042212
20
-740.72536132154653
10
1225.5022812258469
20
-735.93871273068498
42
-1.0000000074505806
10
1231.3944287779732
20
-737.51750886191121
10
1272.1810774566277
20
-808.16205657954538
42
-0.9999999925494194
10
1270.6022812376018
20
-814.05420410814554
10
1262.3115626042129
20
-818.8408527429068
42
-0.99999999999999989
10
1256.41941506385
20
-817.26205656778109
10
1215.6327664729949
20
-746.61750887367248
42
-1.0000000074505806
0
LWPOLYLINE
5
132
100
AcDbEntity
8
0
100
AcDbPolyline
90
8
70
1
43
0.0
10
1001.2497516640169
20
-651.73978271482633
10
1082.8230489335406
20
-651.73978271483463
42
-0.99999999999999989
10
1087.136400298778
20
-656.05313408007305
10
1087.1364002987768
20
-665.62643134959728
42
-0.99999999999999989
10
1082.8230489335388
20
-669.93978271483456
10
1001.2497516640149
20
-669.93978271482672
42
-0.99999999999999989
10
996.93640029877758
20
-665.62643134958807
10
996.93640026664161
20
-656.05313404792719
42
-0.9999999925494194
0
LWPOLYLINE
5
133
100
AcDbEntity
8
0
100
AcDbPolyline
90
8
70
1
43
0.0
10
1225.5022812376249
20
-585.74085274291212
10
1217.2115626042366
20
-580.95420410814938
42
-0.99999999999999989
10
1215.6327664291127
20
-575.0620565677857
10
1256.4194150638812
20
-504.41750886192295
42
-0.99999999999999989
10
1262.311562604245
20
-502.83871268679786
10
1270.6022812376325
20
-507.625361321561
42
-0.99999999999999989
10
1272.1810774127575
20
-513.5175088619244
10
1231.3944287779882
20
-584.16205656778732
42
-0.99999999999999989
0
LWPOLYLINE
5
134
100
AcDbEntity
8
0
100
AcDbPolyline
90
6
70
1
43
0.0
10
1300.8047909495351
20
-893.93978271484775
10
1316.393248217656
20
-884.93978271484923
10
1316.3932482177006
20
-436.73978271486681
10
1300.8047909495817
20
-427.73978271486521
10
912.65220497338896
20
-651.8397827148176
10
912.65220497338737
20
-669.8397827148176
0
LWPOLYLINE
5
135
100
AcDbEntity
8
0
100
AcDbPolyline
90
16
70
1
43
0.0
10
1535.0810982704775
20
-169.04589843750023
10
1505.5013900787139
20
-169.04589843750023
10
1505.5013900787142
20
-543.04589843750011
10
1535.0810983026145
20
-543.04589840536346
42
-0.9999999925494194
10
1539.3944496357153
20
-547.35924980273819
10
1539.3944496357153
20
-561.04589843750023
10
1589.3944496357105
20
-561.04589843750023
10
1589.3944496357117
20
-547.35924980273842
42
-0.99999999999999989
10
1593.7078010009488
20
-543.04589843750011
10
1623.287509192736
20
-543.04589843750011
10
1623.287509192736
20
-169.04589843750023
10
1593.7078010009484
20
-169.04589843750003
42
-0.99999999999999989
10
1589.3944496357105
20
-164.73254707226218
10
1589.3944496357105
20
-151.04589843750011
10
1539.3944496357153
20
-151.04589843750011
10
1539.3944496357153
20
-164.73254707226246
42
-0.99999999999999989
0
LWPOLYLINE
5
136
100
AcDbEntity
8
0
100
AcDbPolyline
90
16
70
1
43
0.0
10
1397.2949351291759
20
-133.04583740234378
10
1367.7152269374008
20
-133.04583740234381
10
1367.7152269374008
20
-507.04583740234375
10
1397.2949351291754
20
-507.04583740234443
42
-0.99999999999999989
10
1401.6082864944144
20
-511.35918876758126
10
1401.6082864944144
20
-525.04583740234375
10
1451.6082864944096
20
-525.04583740234375
10
1451.6082864944099
20
-511.35918876758211
42
-0.99999999999999989
10
1455.921637859647
20
-507.04583740234369
10
1485.5013460514228
20
-507.04583740234369
10
1485.5013460514228
20
-133.04583740234369
10
1455.9216378596464
20
-133.04583740234426
42
-0.99999999999999989
10
1451.6082864944096
20
-128.73248603710536
10
1451.6082864944096
20
-115.04583740234374
10
1401.6082864944144
20
-115.04583740234375
10
1401.6082864944137
20
-128.73248603710573
42
-0.99999999999999989
0
LWPOLYLINE
5
137
100
AcDbEntity
8
0
100
AcDbPolyline
90
6
70
1
43
0.0
10
1053.768422471102
20
-547.27209530323319
10
1332.7152370813928
20
-386.22207679844189
42
0.5773502691896415
10
1332.7152370813985
20
-334.26055257137472
10
1053.7684224711181
20
-173.21053406651006
42
0.57735026918964483
10
1008.7684224711159
20
-199.19129618004098
10
1008.7684224711054
20
-521.29133318969696
42
0.57735026918959376
0
LWPOLYLINE
5
138
100
AcDbEntity
8
0
100
AcDbPolyline
90
8
70
1
43
0.0
10
1147.0999406809949
20
-396.40028705023792
10
1155.390659314384
20
-391.61363841547654
42
-0.99999999999999989
10
1161.2828068547467
20
-393.19243459060374
10
1182.0694554894981
20
-429.19596614509402
42
-0.99999999999999989
10
1180.4906593143719
20
-435.08811368545707
10
1172.1999406927464
20
-439.87476227631862
42
-1.0000000074505806
10
1166.3077931406203
20
-438.29596614509217
10
1145.5211445058696
20
-402.29243459060143
42
-0.99999999999999989
0
LWPOLYLINE
5
139
100
AcDbEntity
8
0
100
AcDbPolyline
90
8
70
1
43
0.0
10
1092.7614820281069
20
-355.45466605010904
10
1092.7614820281062
20
-365.02796331963344
42
-0.99999999999999989
10
1088.448130662867
20
-369.34131468486976
10
1046.8748333933486
20
-369.34131468485998
42
-0.99999999999999989
10
1042.5614820281103
20
-365.02796331962202
10
1042.5614820281112
20
-355.4546660500975
42
-0.99999999999999989
10
1046.8748333933502
20
-351.14131468486039
10
1088.4481306628702
20
-351.14131468486988
42
-0.99999999999999989
0
LWPOLYLINE
5
140
100
AcDbEntity
8
0
100
AcDbPolyline
90
8
70
1
43
0.0
10
1155.3906593143965
20
-328.86899095429601
10
1147.099940681009
20
-324.08234231953344
42
-0.99999999999999989
10
1145.5211445058846
20
-318.1901947791697
10
1166.3077931406533
20
-282.18666322468903
42
-0.99999999999999989
10
1172.1999406810164
20
-280.60786704956399
10
1180.4906593144044
20
-285.39451568432673
42
-0.99999999999999989
10
1182.0694554895279
20
-291.28666322469047
10
1161.2828068547601
20
-327.29019477917149
42
-0.99999999999999989
0
LINE
5
141
100
AcDbEntity
8
0
100
AcDbLine
10
988.76842490942408
20
-174.79992675781264
30
0
11
908.69758094927204
21
-174.79992675781264
31
1.2740655020555278e-31
0
LINE
5
142
100
AcDbEntity
8
0
100
AcDbLine
10
730.00003425864475
20
-174.79992675781261
30
0
11
730.00003425864475
21
-584.79992675781261
31
0
0
LINE
5
143
100
AcDbEntity
8
0
100
AcDbLine
10
730.00003425864475
20
-584.79992675781261
30
0
11
810.07087821879691
21
-584.79992675781261
31
-1.1859964596363311e-31
0
LINE
5
144
100
AcDbEntity
8
0
100
AcDbLine
10
814.38422958403464
20
-589.1132781230508
30
0
11
814.38422958403464
21
-602.79992675781261
31
0
0
LINE
5
145
100
AcDbEntity
8
0
100
AcDbLine
10
814.38422958403464
20
-602.79992675781261
30
0
11
904.38422958403407
21
-602.79992675781261
31
8.4088546700854454e-31
0
LINE
5
146
100
AcDbEntity
8
0
100
AcDbLine
10
904.38422958403407
20
-602.79992675781261
30
8.4088546700854454e-31
11
904.38422958403407
21
-589.11327812305035
31
0
0
LINE
5
147
100
AcDbEntity
8
0
100
AcDbLine
10
908.69758094927215
20
-584.79992675781261
30
0
11
988.76842490942408
21
-584.79992675781261
31
-1.0770244927127301e-30
0
LINE
5
148
100
AcDbEntity
8
0
100
AcDbLine
10
988.76842490942408
20
-584.79992675781261
30
-1.0770244927127301e-30
11
988.76842490942408
21
-174.79992675781261
31
0
0
LINE
5
149
100
AcDbEntity
8
0
100
AcDbLine
10
904.38422958403407
20
-170.48657539257465
30
0
11
904.38422958403407
21
-156.79992675781267
31
0
0
LINE
5
150
100
AcDbEntity
8
0
100
AcDbLine
10
904.38422958403407
20
-156.79992675781267
30
0
11
814.38422958403464
21
-156.79992675781264
31
-8.4088546700854454e-31
0
LINE
5
151
100
AcDbEntity
8
0
100
AcDbLine
10
814.38422958403464
20
-156.79992675781264
30
-8.4088546700854454e-31
11
814.38422958403476
21
-170.48657539257471
31
0
0
LINE
5
152
100
AcDbEntity
8
0
100
AcDbLine
10
908.69758094927136
20
-118.79992675781267
30
0
11
988.76842490942408
21
-118.79992675781267
31
6.4742638622070656e-32
0
LINE
5
153
100
AcDbEntity
8
0
100
AcDbLine
10
814.38422958403396
20
-123.11327812305059
30
0
11
814.38422958403396
21
-136.79992675781264
31
0
0
LINE
5
154
100
AcDbEntity
8
0
100
AcDbLine
10
814.38422958403396
20
-136.79992675781264
30
0
11
904.38422958403339
21
-136.79992675781264
31
-1.6047807911537237e-30
0
LINE
5
155
100
AcDbEntity
8
0
100
AcDbLine
10
904.38422958403339
20
-136.79992675781264
30
-1.6047807911537237e-30
11
904.38422958403339
21
-123.11327812305058
31
7.3955709864469857e-31
0
LINE
5
156
100
AcDbEntity
8
0
100
AcDbLine
10
988.76842490942408
20
-118.79992675781267
30
-6.3242566730861503e-30
11
988.76842490942408
21
291.20007324218733
31
0
0
LINE
5
157
100
AcDbEntity
8
0
100
AcDbLine
10
988.76842490942408
20
291.20007324218733
30
0
11
908.69758094927136
21
291.20007324218733
31
3.8101170561275553e-31
0
LINE
5
158
100
AcDbEntity
8
0
100
AcDbLine
10
904.38422958403339
20
295.51342460742518
30
0
11
904.38422958403339
21
309.20007324218727
31
0
0
LINE
5
159
100
AcDbEntity
8
0
100
AcDbLine
10
904.38422958403339
20
309.20007324218727
30
0
11
814.38422958403396
21
309.20007324218727
31
1.6047807911537233e-30
0
LINE
5
160
100
AcDbEntity
8
0
100
AcDbLine
10
814.38422958403396
20
309.20007324218727
30
1.6047807911537233e-30
11
814.38422958403396
21
295.51342460742535
31
0
0
LINE
5
161
100
AcDbEntity
8
0
100
AcDbLine
10
810.070878218796
20
291.20007324218733
30
0
11
730.0000342586435
21
291.20007324218733
31
-1.5401726567403879e-30
0
LINE
5
162
100
AcDbEntity
8
0
100
AcDbLine
10
730.0000342586435
20
291.20007324218733
30
-1.5401726567403879e-30
11
730.0000342586435
21
-118.79992675781267
31
0
0
LWPOLYLINE
5
163
100
AcDbEntity
8
0
100
AcDbPolyline
90
6
70
1
43
0.0
10
1302.7152022531764
20
80.21544858709774
10
1023.7683876428854
20
-80.834569917693386
42
0.57735026918964538
10
1023.7683876428798
20
-132.79609414476053
10
1302.71520225316
20
-293.8461126496253
42
0.57735026918964016
10
1347.715202253162
20
-267.86535053609447
10
1347.7152022531727
20
54.234686473561595
42
0.5773502691895902
0
LWPOLYLINE
5
164
100
AcDbEntity
8
0
100
AcDbPolyline
90
8
70
1
43
0.0
10
1209.3836840432832
20
-70.656359665897355
10
1201.0929654098941
20
-75.443008300659187
42
-0.99999999999999989
10
1195.2008178695314
20
-73.864212125531949
10
1174.4141692347805
20
-37.860680571041392
42
-0.99999999999999989
10
1175.9929654099064
20
-31.968533030678223
10
1184.2836840432956
20
-27.18188439591648
42
-0.99999999999999989
10
1190.175831583658
20
-28.760680571043764
10
1210.9624802184092
20
-64.764212125534158
42
-0.99999999999999989
0
LWPOLYLINE
5
165
100
AcDbEntity
8
0
100
AcDbPolyline
90
8
70
1
43
0.0
10
1263.7221426961712
20
-111.60198066602672
10
1263.7221426961719
20
-102.02868339650209
42
-0.99999999999999989
10
1268.0354940614111
20
-97.715332031265547
10
1309.6087913309298
20
-97.715332031275537
42
-0.99999999999999989
10
1313.9221426961676
20
-102.02868339651346
10
1313.9221426961674
20
-111.60198066603797
42
-0.99999999999999989
10
1309.6087913309279
20
-115.9153320312749
10
1268.0354940614088
20
-115.91533203126509
42
-0.99999999999999989
0
LWPOLYLINE
5
166
100
AcDbEntity
8
0
100
AcDbPolyline
90
8
70
1
43
0.0
10
1201.0929654098813
20
-138.18765576183918
10
1209.3836840432698
20
-142.97430439660224
42
-0.99999999999999989
10
1210.9624802183932
20
-148.86645193696586
10
1190.175831583625
20
-184.86998349144653
42
-0.99999999999999989
10
1184.2836840432617
20
-186.44877966657151
10
1175.9929654537739
20
-181.66213102004571
42
-1.0000000074505806
10
1174.4141692347503
20
-175.76998349144489
10
1195.200817869518
20
-139.76645193696424
42
-0.99999999999999989
0
LWPOLYLINE
5
167
100
AcDbEntity
8
0
100
AcDbPolyline
90
16
70
1
43
0.0
10
1397.2950205403217
20
296.95410156249983
10
1367.7153123485418
20
296.95410156249989
10
1367.7153123485418
20
-77.045898437500142
10
1397.2950205403226
20
-77.045898437500298
42
-0.99999999999999989
10
1401.6083719055605
20
-81.359249802738404
10
1401.6083719055605
20
-95.045898437500327
10
1451.6083719055555
20
-95.04589843750027
10
1451.608371905555
20
-81.359249802738049
42
-0.99999999999999989
10
1455.9217232707933
20
-77.045898437500128
10
1485.5014314625641
20
-77.045898437500128
10
1485.5014314625641
20
296.95410156249983
10
1455.9217232707922
20
296.95410156249943
42
-0.99999999999999989
10
1451.608371905555
20
301.26745292773796
10
1451.608371905555
20
314.95410156249983
10
1401.6083719055598
20
314.95410156249977
10
1401.608371873423
20
301.26745295987467
42
-1.0000000074505806
0
LWPOLYLINE
5
168
100
AcDbEntity
8
0
100
AcDbPolyline
90
16
70
1
43
0.0
10
1535.0810649652101
20
260.95410156249983
10
1505.5013567734343
20
260.95410156249983
10
1505.5013567734343
20
-113.04589843750009
10
1535.0810649652101
20
-113.04589843750023
42
-0.99999999999999989
10
1539.3944163304479
20
-117.35924980273819
10
1539.3944163304479
20
-131.0458984375002
10
1589.3944163304432
20
-131.04589843750017
10
1589.3944163304434
20
-117.35924980273811
42
-0.99999999999999989
10
1593.7077676956812
20
-113.04589843750009
10
1623.2874758874568
20
-113.04589843750009
10
1623.2874758874564
20
260.95410156249989
10
1593.707767695681
20
260.9541015625
42
-0.99999999999999989
10
1589.3944163304432
20
265.26745292773796
10
1589.3944163304432
20
278.95410156249989
10
1539.3944163304479
20
278.95410156249983
10
1539.3944163304479
20
265.26745292773796
42
-0.99999999999999989
0
LWPOLYLINE
5
169
100
AcDbEntity
8
0
100
AcDbPolyline
90
16
70
1
43
0.0
10
1535.0811754424267
20
690.95410156249977
10
1505.5014672506163
20
690.9541015625
10
1505.5014672506163
20
316.9541015625
10
1535.0811754745632
20
316.95410159463665
42
-0.9999999925494194
10
1539.3945268076641
20
312.6407501972617
10
1539.3945268076641
20
298.95410156249977
10
1589.3945268076593
20
298.95410156249972
10
1589.3945268076593
20
312.64075019726175
42
-0.99999999999999989
10
1593.7078781728972
20
316.95410156249994
10
1623.2875863646757
20
316.95410156249994
10
1623.2875863646757
20
690.95410156249977
10
1593.7078781407613
20
690.95410153036278
42
-0.9999999925494194
10
1589.3945268076598
20
695.26745292773762
10
1589.3945268076598
20
708.9541015625
10
1539.3945268076645
20
708.95410156249977
10
1539.3945268076645
20
695.26745292773762
42
-0.99999999999999989
0
LWPOLYLINE
5
170
100
AcDbEntity
8
0
100
AcDbPolyline
90
16
70
1
43
0.0
10
1397.2950235166672
20
726.95410156249989
10
1367.7153153249037
20
726.95410156249989
10
1367.7153153249039
20
352.9541015625
10
1397.2950235488042
20
352.95410159463688
42
-0.9999999925494194
10
1401.6083748819051
20
348.64075019726187
10
1401.6083748819051
20
334.95410156249989
10
1451.6083748819003
20
334.95410156249989
10
1451.6083748819005
20
348.64075019726192
42
-0.99999999999999989
10
1455.9217262471384
20
352.95410156249994
10
1485.501434438926
20
352.9541015625
10
1485.501434438926
20
726.95410156249977
10
1455.9217262471384
20
726.9541015625
42
-0.99999999999999989
10
1451.6083748819005
20
731.26745292773762
10
1451.6083748819005
20
744.95410156249989
10
1401.6083748819053
20
744.95410156249989
10
1401.6083748819055
20
731.26745292773751
42
-0.99999999999999989
0
LWPOLYLINE
5
171
100
AcDbEntity
8
0
100
AcDbPolyline
90
8
70
1
43
0.0
10
1172.1999951559567
20
226.24418982282145
10
1180.4907137893447
20
221.45754118805849
42
-0.99999999999999989
10
1182.0695099644684
20
215.56539364769469
10
1161.2828613297004
20
179.56186209321402
42
-0.99999999999999989
10
1155.390713789337
20
177.9830659180891
10
1147.0999951559493
20
182.76971455285207
42
-0.99999999999999989
10
1145.5211989808251
20
188.66186209321583
10
1166.3078476038302
20
224.66539369159622
42
-0.9999999925494194
0
LWPOLYLINE
5
172
100
AcDbEntity
8
0
100
AcDbPolyline
90
8
70
1
43
0.0
10
1180.4907137893126
20
71.763943186928401
10
1172.1999951559237
20
66.977294552166967
42
-0.99999999999999989
10
1166.3078476155608
20
68.556090727293778
10
1145.5211989808099
20
104.55962228178421
42
-0.99999999999999989
10
1147.0999951559356
20
110.45176982214748
10
1155.3907137775618
20
115.23841841300938
42
-1.0000000074505806
10
1161.2828613296874
20
113.65962228178194
10
1182.0695099644383
20
77.656090727291485
42
-0.99999999999999989
0
LWPOLYLINE
5
173
100
AcDbEntity
8
0
100
AcDbPolyline
90
8
70
1
43
0.0
10
1042.5615365030508
20
141.82409355276354
10
1042.5615365030517
20
151.39739082228829
42
-0.99999999999999989
10
1046.8748878682909
20
155.710742187525
10
1088.4481851378096
20
155.71074218751519
42
-0.99999999999999989
10
1092.7615365030474
20
151.39739082227686
10
1092.7615365030465
20
141.82409355275234
42
-0.99999999999999989
10
1088.4481851378075
20
137.51074218751569
10
1046.8748878682886
20
137.51074218752549
42
-0.99999999999999989
0
LWPOLYLINE
5
174
100
AcDbEntity
8
0
100
AcDbPolyline
90
6
70
1
43
0.0
10
1332.7152915563331
20
120.62998007394333
42
0.57735026918964061
10
1332.7152915563388
20
172.59150430101039
10
1053.7684769460586
20
333.64152280587518
42
0.57735026918964405
10
1008.7684769460564
20
307.66076069234424
10
1008.7684769460458
20
-14.439276317311709
42
0.57735026918959387
10
1053.7684769460423
20
-40.420038430847612
0
LWPOLYLINE
5
175
100
AcDbEntity
8
0
100
AcDbPolyline
90
8
70
1
43
0.0
10
1184.2838031371075
20
320.40323069126828
10
1175.9930845037193
20
325.18987932603056
42
-0.99999999999999989
10
1174.4142883285963
20
331.08202686639459
10
1195.2009369516013
20
367.08555846477481
42
-0.9999999925494194
10
1201.0930845037274
20
368.66435459600041
10
1209.3838031810146
20
363.87770597299976
42
-0.9999999925494194
10
1210.9625993122395
20
357.98555842087347
10
1190.1759506774711
20
321.98202686639206
42
-0.99999999999999989
0
LWPOLYLINE
5
176
100
AcDbEntity
8
0
100
AcDbPolyline
90
8
70
1
43
0.0
10
1175.9930845037518
20
474.88347732716079
10
1184.2838031253782
20
479.67012591802239
42
-1.0000000074505806
10
1190.1759506775038
20
478.09132978679577
10
1210.9625993122543
20
442.08779823230486
42
-0.99999999999999989
10
1209.3838031371286
20
436.19565069194164
10
1201.0930845155021
20
431.40900210107918
42
-1.0000000074505806
10
1195.200936963377
20
432.98779823230791
10
1174.4142883286261
20
468.99132978679756
42
-0.99999999999999989
0
LWPOLYLINE
5
177
100
AcDbEntity
8
0
100
AcDbPolyline
90
8
70
1
43
0.0
10
1313.9222617900136
20
404.82332696132625
10
1313.9222617900127
20
395.25002969180099
42
-0.99999999999999989
10
1309.6089104247733
20
390.93667832656445
10
1268.0356131552544
20
390.93667832657377
42
-0.99999999999999989
10
1263.7222617900172
20
395.25002969181259
10
1263.7222617900181
20
404.82332696133648
42
-0.99999999999999989
10
1268.0356131552567
20
409.13667832657376
10
1309.6089104247746
20
409.13667832656307
42
-0.99999999999999989
0
LWPOLYLINE
5
178
100
AcDbEntity
8
0
100
AcDbPolyline
90
6
70
1
43
0.0
10
1023.7685067367313
20
426.01744044014595
42
0.57735026918964094
10
1023.7685067367256
20
374.05591621307883
10
1302.715321347006
20
213.00589770821426
42
0.57735026918964449
10
1347.7153213470083
20
238.98665982174521
10
1347.7153213470187
20
561.08669683140101
42
0.5773502691895942
10
1302.7153213470224
20
587.06745894493724
0
LWPOLYLINE
5
179
100
AcDbEntity
8
0
100
AcDbPolyline
90
6
70
1
43
0.0
10
1053.768540957665
20
466.43254105506264
10
1332.7153555679558
20
627.48255955985394
42
0.57735026918964372
10
1332.7153555679618
20
679.44408378692106
10
1053.7685409576811
20
840.49410229178579
42
0.57735026918964083
10
1008.768540957679
20
814.51334017825457
10
1008.7685409576684
20
492.41330316859876
42
0.57735026918959209
0
LWPOLYLINE
5
180
100
AcDbEntity
8
0
100
AcDbPolyline
90
8
70
1
43
0.0
10
1147.1000591675581
20
617.30434930805791
10
1155.390777800947
20
622.09099794281951
42
-0.99999999999999989
10
1161.2829253413097
20
620.51220176769243
10
1182.0695739760611
20
584.50867021320209
42
-0.99999999999999989
10
1180.4907778009353
20
578.61652267283898
10
1172.2000591793089
20
573.82987408197687
42
-1.0000000074505806
10
1166.3079116271831
20
575.40867021320423
10
1145.5212629924322
20
611.41220176769468
42
-0.99999999999999989
0
LWPOLYLINE
5
181
100
AcDbEntity
8
0
100
AcDbPolyline
90
8
70
1
43
0.0
10
1092.7616005146701
20
658.24997030818724
10
1092.7616005146697
20
648.6766730386621
42
-0.99999999999999989
10
1088.4482491494302
20
644.36332167342596
10
1046.8749518799118
20
644.36332167343585
42
-0.99999999999999989
10
1042.5616005146735
20
648.67667303867415
10
1042.5616005146744
20
658.24997030819873
42
-0.99999999999999989
10
1046.8749518799136
20
662.56332167343544
10
1088.4482491494325
20
662.56332167342532
42
-0.99999999999999989
0
LWPOLYLINE
5
182
100
AcDbEntity
8
0
100
AcDbPolyline
90
8
70
1
43
0.0
10
1155.39077780096
20
684.83564540399948
10
1147.1000592114715
20
689.6222940505254
42
-1.0000000074505806
10
1145.5212629924479
20
695.51444157912647
10
1166.3079116272156
20
731.51797313360692
42
-0.99999999999999989
10
1172.2000591675792
20
733.09676930873206
10
1180.4907777570675
20
728.31012066220615
42
-1.0000000074505806
10
1182.0695739760911
20
722.4179731336053
10
1161.2829253413233
20
686.41444157912531
42
-0.99999999999999989
0
LWPOLYLINE
5
183
100
AcDbEntity
8
0
100
AcDbPolyline
90
16
70
1
43
0.0
10
908.69759101948466
20
347.20007324218756
10
988.76843497963603
20
347.20007324218756
10
988.76843497963603
20
757.2000732421875
10
908.69759101948432
20
757.20007324218727
42
-0.99999999999999989
10
904.38423965424647
20
761.51342460742569
10
904.38423965424647
20
775.2000732421875
10
814.38423965424704
20
775.2000732421875
10
814.38423965424681
20
761.51342460742569
42
-0.99999999999999989
10
810.07088828900896
20
757.2000732421875
10
730.0000443288568
20
757.2000732421875
10
730.0000443288568
20
347.20007324218756
10
810.07088828900919
20
347.20007324218773
42
-0.99999999999999989
10
814.38423965424704
20
342.88672187694942
10
814.38423965424704
20
329.20007324218761
10
904.38423965424647
20
329.20007324218761
10
904.38423965424647
20
342.88672187694971
42
-0.99999999999999989
0
LWPOLYLINE
5
184
100
AcDbEntity
8
0
100
AcDbPolyline
90
4
70
1
43
0.0
10
700
20
-1519.2000000000003
10
1920
20
-1519.2000000000003
10
1920
20
919.19999999999982
10
700
20
919.19999999999982
0
ARC
5
185
100
AcDbEntity
8
0
100
AcDbCircle
10
1613.9437987685919
20
-1095.0432754892563
30
3.7358836011784674e-45
40
3.0500000000000367
210
-7.3377251784712271e-45
220
-5.6054834551154695e-45
230
1
100
AcDbArc
50
134.99999999999397
51
315.00000000000608
0
ARC
5
186
100
AcDbEntity
8
0
100
AcDbCircle
10
1559.6304474033586
20
-1095.0432754892563
30
-1.4231937528298923e-45
40
3.0500000000000367
210
-1.743152798420905e-32
220
1.7431527984213158e-32
230
1
100
AcDbArc
50
-135.00000000000605
51
44.999999999993967
0
ARC
5
187
100
AcDbEntity
8
0
100
AcDbCircle
10
1559.6304474033584
20
-1473.3566268544939
30
-6.8422776578360209e-48
40
3.0500000000001375
210
3.8934194924936787e-46
220
3.925145531383485e-46
230
1
100
AcDbArc
50
-44.999999999993946
51
135.00000000000304
0
ARC
5
188
100
AcDbEntity
8
0
100
AcDbCircle
10
1613.9437987685919
20
-1473.3566268544939
30
-9.3054976146569884e-45
40
3.0499999999999359
210
4.3578819960524068e-32
220
2.614729197631807e-32
230
1
100
AcDbArc
50
44.999999999996973
51
225
0
LINE
5
189
100
AcDbEntity
8
0
100
AcDbLine
10
1616.1004744512111
20
-1471.199951171875
30
-1.5037661005776185e-31
11
1645.6801826430251
21
-1471.199951171875
31
0
0
ARC
5
190
100
AcDbEntity
8
0
100
AcDbCircle
10
1421.844528025129
20
-560.8892837900371
30
-2.4837467897944756e-45
40
3.0500000000000869
210
2.4124162711029353e-45
220
-1.2607610594214802e-45
230
1
100
AcDbArc
50
-134.99999999999548
51
44.999999999993967
0
ARC
5
191
100
AcDbEntity
8
0
100
AcDbCircle
10
1421.844528025129
20
-939.20263515527506
30
-6.1238385037632387e-46
40
3.0499999999999359
210
-7.9077151931563725e-47
220
2.0487089612760729e-46
230
1
100
AcDbArc
50
-44.999999999996994
51
134.99999999999699
0
ARC
5
192
100
AcDbEntity
8
0
100
AcDbCircle
10
1476.1578793903623
20
-939.20263515527495
30
2.4769045121366395e-45
40
3.0500000000000367
210
1.7431527984209975e-32
220
1.743152798421174e-32
230
1
100
AcDbArc
50
44.999999999992447
51
225.00000000000452
0
LINE
5
193
100
AcDbEntity
8
0
100
AcDbLine
10
1478.3145550729816
20
-937.04595947265614
30
-7.5188305028877683e-32
11
1507.8942632648079
21
-937.04595947265602
31
0
0
ARC
5
194
100
AcDbEntity
8
0
100
AcDbCircle
10
1476.1578793903627
20
-560.8892837900371
30
-3.4211388289180104e-48
40
3.0500000000000367
210
-1.5150214665899423e-45
220
-1.5166077685347064e-45
230
1
100
AcDbArc
50
135.00000000000455
51
314.99999999999545
0
ARC
5
195
100
AcDbEntity
8
0
100
AcDbCircle
10
812.22755390141606
20
-586.95660244043165
30
-8.210733189403225e-47
40
3.0499999999998861
210
-8.715763992108113e-33
220
-8.7157639921060644e-33
230
1
100
AcDbArc
50
-45.000000000007525
51
135.00000000000153
0
ARC
5
196
100
AcDbEntity
8
0
100
AcDbCircle
10
906.54090526665323
20
-586.95660244043142
30
2.7916492843970965e-45
40
3.0499999999998861
210
-1.7431527984209417e-32
220
1.7431527984211283e-32
230
1
100
AcDbArc
50
44.999999999998494
51
224.99999999999696
0
ARC
5
197
100
AcDbEntity
8
0
100
AcDbCircle
10
906.540905266653
20
-172.64325107519375
30
1.648988915538481e-45
40
3.0500000000000616
210
8.7157639921047425e-33
220
8.7157639921047877e-33
230
1
100
AcDbArc
50
134.99999999999773
51
315.00000000000188
0
ARC
5
198
100
AcDbEntity
8
0
100
AcDbCircle
10
812.22755390141572
20
-172.64325107519366
30
-1.5053010847239246e-46
40
3.0499999999999612
210
-8.7157639921054555e-33
220
8.71576399210532e-33
230
1
100
AcDbArc
50
-134.99999999999966
51
44.99999999999887
0
LINE
5
199
100
AcDbEntity
8
0
100
AcDbLine
10
810.07087821879679
20
-174.79992675781261
30
-1.3125928195378582e-46
11
730.00003425864475
21
-174.79992675781261
31
0
0
ARC
5
200
100
AcDbEntity
8
0
100
AcDbCircle
10
812.22755390141492
20
-120.95660244043165
30
-7.868619306511424e-47
40
3.0500000000000496
210
-2.3934916889053647e-46
220
-2.028642241678638e-46
230
1
100
AcDbArc
50
-44.999999999998678
51
134.9999987925809
0
ARC
5
201
100
AcDbEntity
8
0
100
AcDbCircle
10
906.54090526665243
20
-120.95660244043162
30
3.8795714319930238e-45
40
3.0499999999999612
210
8.7157639921063491e-33
220
-8.7157639921044072e-33
230
1
100
AcDbArc
50
45.000000000000369
51
224.99999999999883
0
ARC
5
202
100
AcDbEntity
8
0
100
AcDbCircle
10
906.54090526665232
20
293.35674892480625
30
0
40
3.0499999999999359
210
0
220
0
230
1
100
AcDbArc
50
135
51
315.00000000000153
0
ARC
5
203
100
AcDbEntity
8
0
100
AcDbCircle
10
812.22755390141492
20
293.35674892480631
30
-1.4266148916588103e-45
40
3.0499999999999865
210
-8.7157639921051407e-33
220
8.7157639921055157e-33
230
1
100
AcDbArc
50
-134.99999999999926
51
45
0
LINE
5
204
100
AcDbEntity
8
0
100
AcDbLine
10
730.0000342586435
20
-118.79992675781267
30
0
11
810.07087826424458
21
-118.79992671236417
31
3.7594152514438672e-32
0
ENDSEC
0
SECTION
2
OBJECTS
0
DICTIONARY
5
C
100
AcDbDictionary
3
ACAD_GROUP
350
D
3
ACAD_MLINESTYLE
350
17
0
DICTIONARY
5
D
100
AcDbDictionary
0
DICTIONARY
5
1A
330
C
100
AcDbDictionary
0
DICTIONARY
5
17
100
AcDbDictionary
0
ENDSEC
0
EOF
